HIERARCHY
ROOT Hips
{
  OFFSET 196.326 95.9168 97.7182
  CHANNELS 6 Xposition Yposition Zposition Zrotation Xrotation Yrotation
  JOINT LeftUpLeg
  {
    OFFSET 8.64259 1.95398 -2.38835
    CHANNELS 3 Zrotation Xrotation Yrotation
    JOINT LeftLeg
    {
      OFFSET 43.7702 0 0
      CHANNELS 3 Zrotation Xrotation Yrotation
      JOINT LeftFoot
      {
        OFFSET 40.6238 0 0
        CHANNELS 3 Zrotation Xrotation Yrotation
        JOINT LeftToeBase
        {
          OFFSET 12.7242 0 0
          CHANNELS 3 Zrotation Xrotation Yrotation
          End Site
          {
            OFFSET 0 0 0
          }
        }
      }
    }
  }
  JOINT RightUpLeg
  {
    OFFSET -8.2249 1.95398 -2.59336
    CHANNELS 3 Zrotation Xrotation Yrotation
    JOINT RightLeg
    {
      OFFSET 43.5653 0 0
      CHANNELS 3 Zrotation Xrotation Yrotation
      JOINT RightFoot
      {
        OFFSET 40.6238 0 0
        CHANNELS 3 Zrotation Xrotation Yrotation
        JOINT RightToeBase
        {
          OFFSET 12.7242 0 0
          CHANNELS 3 Zrotation Xrotation Yrotation
          End Site
          {
            OFFSET 0 0 0
          }
        }
      }
    }
  }
  JOINT Spine
  {
    OFFSET 0.165834 0.87714 6.61349
    CHANNELS 3 Zrotation Xrotation Yrotation
    JOINT Spine1
    {
      OFFSET 7.38963 1.71661e-005 0
      CHANNELS 3 Zrotation Xrotation Yrotation
      JOINT Spine2
      {
        OFFSET 11.9445 1.14441e-005 0
        CHANNELS 3 Zrotation Xrotation Yrotation
        JOINT Spine3
        {
          OFFSET 14.7254 4.19617e-005 0
          CHANNELS 3 Zrotation Xrotation Yrotation
          JOINT Spine4
          {
            OFFSET 10.9679 0 0
            CHANNELS 3 Zrotation Xrotation Yrotation
            JOINT RightShoulder
            {
              OFFSET 2.46616 -1.6653 3.69651
              CHANNELS 3 Zrotation Xrotation Yrotation
              JOINT RightArm
              {
                OFFSET 13.0012 0 0
                CHANNELS 3 Zrotation Xrotation Yrotation
                JOINT RightForeArm
                {
                  OFFSET 28.7848 1.52588e-005 0
                  CHANNELS 3 Zrotation Xrotation Yrotation
                  JOINT RightHand
                  {
                    OFFSET 26.5688 1.52588e-005 0
                    CHANNELS 3 Zrotation Xrotation Yrotation
                    End Site
                    {
                      OFFSET 0 0 0
                    }
                  }
                }
              }
            }
            JOINT LeftShoulder
            {
              OFFSET 2.38034 -1.29275 -3.75231
              CHANNELS 3 Zrotation Xrotation Yrotation
              JOINT LeftArm
              {
                OFFSET 16.3182 6.10351e-005 0
                CHANNELS 3 Zrotation Xrotation Yrotation
                JOINT LeftForeArm
                {
                  OFFSET 27.0901 0 0
                  CHANNELS 3 Zrotation Xrotation Yrotation
                  JOINT LeftHand
                  {
                    OFFSET 24.5451 1.52588e-005 0
                    CHANNELS 3 Zrotation Xrotation Yrotation
                    End Site
                    {
                      OFFSET 0 0 0
                    }
                  }
                }
              }
            }
            JOINT Neck
            {
              OFFSET 5.0226 -0.0266342 0
              CHANNELS 3 Zrotation Xrotation Yrotation
              JOINT Head
              {
                OFFSET 6.69363 2.86102e-005 0
                CHANNELS 3 Zrotation Xrotation Yrotation
                End Site
                {
                  OFFSET 0 0 0
                }
              }
            }
          }
        }
      }
    }
  }
}
MOTION
Frames:	17
Frame Time:	0.0416667
113.338 24.3878 116.136 9.07714 4.77259 43.9536 -141.036 51.2133 87.3532 -71.6323 37.7127 -10.6056 50.318 -3.67976 11.8226 48.1449 37.7664 39.0285 179.628 9.22699 84.6747 -21.9179 -4.93695 -5.62444 46.8669 1.56003 1.6926 37.008 0.648647 14.8959 -0.996179 7.2506 -90.0224 12.3761 -1.99015 0.181771 0.706674 -1.98021 0.269195 -21.8404 -1.95273 -0.425 -1.82772 -1.95274 -0.425 92.45 -27.2209 -102.775 1.55329 44.1096 -43.4785 120.356 -51.332 -75.3216 18.7822 -2.75676 -25.5613 -91.9625 -21.8284 65.9579 178.806 -74.9798 160.231 4.93045 25.8141 -131.224 20.7334 3.66226 13.8397 22.7442 -5.63671 -6.90287 32.073 -1.44178 4.45977 
106.035 22.9017 114.312 13.3685 6.12413 43.6523 -135.064 58.7998 85.8445 -85.6217 41.147 -6.88111 50.1597 -3.99173 10.8492 48.5715 37.5084 37.3997 178.925 7.34789 87.2194 -17.2897 -3.12644 -3.85104 43.9311 1.48569 1.75368 38.9774 1.32154 22.8657 -1.2908 6.92371 -89.5422 13.0406 -2.34232 1.20348 1.37106 -2.28708 1.30542 -21.1801 -2.59568 0.443488 -1.16744 -2.59567 0.443483 94.3918 -21.7588 -100.338 8.21542 49.866 -45.8425 162.126 -20.8086 -50.7193 5.8819 -1.32536 -39.6045 -89.3892 -13.7032 67.4781 161.791 -86.4779 136.69 5.61862 19.1796 -114.048 19.2027 2.79284 10.6908 11.8526 -5.44543 -15.934 39.6858 2.20935 7.79449 
99.7694 20.542 111.915 17.8663 6.62493 42.9557 -135.124 64.3273 88.1396 -96.2394 47.1993 -4.28406 49.6866 -4.72237 12.042 49.1542 40.1982 39.4019 178.497 9.0031 87.6531 -24.482 0.124976 -3.63269 48.8034 -0.565207 0.0423628 45.7466 5.73808 48.2353 -1.35995 6.68054 -89.1749 13.5329 -2.29739 1.94911 1.86241 -2.20939 2.04831 -20.6839 -2.77688 1.16834 -0.671295 -2.77687 1.16832 95.2665 -18.7949 -99.2347 -0.0169431 51.729 -39.1336 -49.6173 24.3714 -115.902 -22.9583 5.5098 -24.3523 -89.5581 -9.70382 64.5142 31.2863 -79.6522 -4.36042 6.19522 12.4169 -92.4471 18.4265 2.0757 7.37016 3.31729 -5.45095 -21.2905 45.3972 3.78701 10.265 
96.1471 17.4099 109.79 19.6989 7.89163 42.934 -133.211 68.3376 89.0303 -104.035 49.9996 -2.2317 48.8593 -6.25166 11.3727 49.1891 39.367 38.2024 179.242 5.18627 88.8275 -25.031 -4.18824 -5.10335 62.5756 -4.38401 -2.4238 57.2242 10.842 44.933 -1.34821 6.23239 -89.0854 14.4287 -2.21963 2.15088 2.75766 -2.12284 2.24643 -19.7857 -2.76336 1.38423 0.226935 -2.76333 1.38422 97.0258 -11.2773 -97.2358 -2.30173 50.2648 -34.1432 -21.068 8.64622 -125.509 -10.5724 -1.75412 12.878 -89.0544 -5.8556 63.0963 24.9433 -72.4338 -13.2234 8.51625 8.08276 -81.9836 18.7567 1.82722 5.84134 -0.343097 -5.52488 -26.2267 47.3546 6.0996 14.169 
94.2257 15.1621 108.716 18.3714 8.83791 41.4254 -129.961 69.26 88.2518 -105.787 54.0409 -2.36422 49.2103 -6.31695 10.6843 50.0116 42.9711 40.5729 179.137 1.52632 87.8802 -18.8473 -7.15045 -5.86445 71.6865 -7.87554 -3.89844 67.904 12.6443 33.9344 -1.08652 5.89329 -88.9297 15.1011 -1.61592 2.39548 3.4288 -1.50897 2.46422 -19.1033 -2.26105 1.79927 0.909356 -2.26106 1.79926 100.069 -0.791575 -90.4489 11.4804 51.4204 -39.7238 -22.5189 6.67406 -122.225 -10.0045 -1.15657 8.7856 -89.6619 -2.73755 58.6318 38.3892 -66.9473 -1.26864 5.3229 4.81065 -72.9503 25.2065 1.73813 3.07097 0.969699 -6.39444 -28.9657 45.7984 7.43755 17.535 
93.3412 14.0716 108.349 17.5312 7.17663 41.0867 -130.356 70.0303 92.2376 -107.681 55.3363 -2.14719 48.9983 -6.59279 10.8138 53.9748 45.2603 33.8173 179.559 0.585353 87.6032 -20.233 -10.4541 -6.74083 71.7135 -7.87977 -3.8946 71.8922 11.4817 26.1595 -0.645158 5.97916 -88.7431 14.9177 -0.652212 2.62503 3.24422 -0.536119 2.65114 -19.2752 -1.4108 2.30792 0.737469 -1.4108 2.30793 102.33 24.9064 -93.6343 34.3968 55.5263 -30.373 -19.2704 1.20848 -125.824 -13.4079 -1.61964 10.2842 -88.1304 -0.0137136 60.6742 40.6356 -62.9801 13.2268 -2.86404 -0.694261 -90.8156 40.68 4.47994 7.23686 6.79264 -8.36821 -27.0877 40.1387 6.04355 18.9929 
93.3162 14.22 108.965 18.701 8.13607 41.2757 -129.596 71.0882 90.4978 -109.423 51.5088 -1.03128 49.7179 -5.13063 13.8243 61.926 43.7824 14.3671 -179.998 1.51256 88.5056 -21.9276 -9.71468 -6.79629 71.3904 -7.82789 -3.88708 72.1291 11.2301 25.2514 -0.70705 6.37372 -88.4371 14.1244 -0.635673 3.22414 2.44952 -0.493234 3.24894 -20.0599 -1.57488 2.88453 -0.0472789 -1.57488 2.88454 115.16 60.8789 -112.462 87.3746 82.7453 -25.0866 -6.25332 -14.2181 -130.416 -15.4471 -1.54122 8.70771 -94.4526 -17.8371 57.8117 42.6531 -52.2757 36.1834 23.6895 4.74235 -144.36 48.9808 12.1971 20.3232 14.7478 -11.1251 -28.4003 33.9996 4.07842 18.5177 
93.4832 16.1525 109.312 20.35 8.18079 45.0233 -138.503 70.4823 97.3952 -108.158 37.8604 0.267656 49.502 -3.90007 13.7114 68.0565 38.84 -6.19086 -179.147 3.78026 91.5049 -24.6392 -8.68103 -5.25036 66.6562 -6.28197 -3.36242 74.121 13.0455 28.2732 -0.927721 7.06111 -88.4299 12.7573 -1.09213 3.26358 1.08255 -0.947502 3.3084 -21.4308 -2.02212 2.78509 -1.41814 -2.02212 2.78507 129.179 45.4467 160.201 -136.272 -13.9088 87.7544 -113.061 61.5898 -179.718 -11.0013 -0.916292 -2.87198 -102.115 -34.92 54.0243 17.1734 -27.0667 31.0305 34.5095 -26.4514 -143.025 53.5994 16.7731 26.8586 18.5996 -11.9057 -24.7577 33.1824 0.0836371 10.9743 
94.6255 18.587 107.702 18.4459 7.8628 48.8392 -148.536 59.2235 104.376 -95.5887 31.1937 -1.85694 48.4043 -4.61833 13.1476 68.328 34.7771 -14.9482 178.404 7.81006 92.851 -27.529 -4.70682 -1.68187 64.5848 -4.40931 -2.47367 71.0361 13.0299 31.4597 -0.885312 7.28809 -88.559 12.3034 -1.07586 2.99811 0.62931 -0.942919 3.04249 -21.8882 -1.92691 2.53664 -1.87556 -1.9269 2.53664 -52.6268 -48.164 114.127 -144.022 39.0411 -0.469753 -21.179 17.6324 -103.595 -16.5975 -2.17302 10.0317 -104.006 -38.0509 52.6016 17.1493 -22.0768 19.8464 40.1777 -35.6595 -139.062 41.335 14.0882 30.081 20.7001 -11.4139 -16.3389 32.6044 -5.02427 2.04573 
95.2426 20.906 103.485 9.82085 1.42565 52.1527 -152.905 39.176 106.109 -68.4612 28.4266 -6.92815 40.9932 -11.6498 2.82411 61.0538 30.8595 -9.50573 176.971 16.4613 92.2421 -35.4258 -5.18671 0.295459 63.0891 -2.02761 -1.13261 70.2548 16.9638 43.5157 0.00225408 7.12816 -88.7516 12.6058 0.599936 2.42239 0.932776 0.705915 2.39364 -21.5845 -0.155602 2.49064 -1.57181 -0.155608 2.49065 -86.0713 -35.8891 93.8704 -137.418 63.7891 -24.9939 -23.38 11.9323 -104.371 -18.0811 -2.35599 10.0565 -111.595 -40.9882 42.738 24.0236 -36.3975 22.1117 33.9038 -33.9934 -146.983 35.9025 11.1427 27.2192 22.3294 -11.0917 -17.397 30.3806 -4.2919 1.76186 
95.093 21.3484 98.5093 2.85087 -4.77129 53.2177 -164.069 17.6605 102.202 -35.0559 20.3508 -4.26236 34.9192 -14.591 -2.89955 49.6298 20.9301 -7.41361 175.142 22.4656 91.2721 -42.3992 -9.66766 2.01649 67.0021 -2.43779 -1.2796 77.5515 18.6894 38.7377 0.396888 6.81998 -88.752 13.214 1.38931 2.32468 1.54184 1.49025 2.2613 -20.9785 0.626697 2.63453 -0.965905 0.6267 2.63453 -71.8046 -37.9071 101.395 -136.642 61.7141 -19.8155 -19.8566 3.08366 -101.75 -22.2533 -2.41096 7.64197 -118.265 -41.3581 33.4555 57.9909 -59.161 48.3044 18.452 -16.6562 -162.317 30.1024 8.07876 23.1928 18.6763 -8.35935 -22.9293 33.0607 0.0287859 3.02556 
94.5102 19.68 93.2953 -4.24157 -10.0043 55.9732 -170.412 6.70221 99.4671 -10.9906 18.9012 -0.00626861 34.6806 -13.7172 0.350936 45.8171 16.1248 -14.3286 170.031 25.7682 92.7273 -46.5801 -8.79267 6.77978 69.5456 -3.18965 -1.70138 89.3034 17.4001 26.4778 0.770461 6.22011 -89.2259 14.4241 1.90726 1.29079 2.75406 1.96221 1.20556 -19.7831 1.4312 1.80427 0.229588 1.43119 1.80427 -22.6801 -60.3433 140.082 -119.237 51.9458 -4.05985 -18.8138 -0.488617 -88.2177 -22.2355 -1.33513 2.33112 -111.452 -42.5499 43.8745 44.8708 -63.8007 31.2114 12.5852 -9.70533 -164.1 27.7307 7.16078 22.1005 13.6702 -4.69685 -23.1141 35.1686 2.31358 1.77792 
93.4113 19.3842 87.7091 -5.33841 -12.3997 55.8828 -171.265 5.63842 96.205 -8.09129 15.0573 -0.507178 36.7028 -13.324 0.00761112 43.0355 14.1845 -10.9054 159.799 29.6033 91.1435 -58.2013 -3.60595 11.5924 72.7605 -4.28731 -2.18121 86.4901 6.98173 6.78729 1.11026 6.11842 -89.5506 14.634 2.42 0.554734 2.96523 2.44208 0.447649 -19.5839 2.14135 1.2567 0.428772 2.14136 1.2567 82.7162 -22.5101 -125.621 -61.7917 60.2185 12.7044 -21.0932 -5.63182 -75.6856 -22.9122 -0.920409 -0.00739034 -101.631 -38.6666 56.7029 4.89867 -47.9984 -6.432 18.9458 -23.8576 -157.59 20.9336 6.39185 26.3363 9.02554 -3.89871 -21.2566 38.1791 2.39148 3.06698 
92.2705 19.7457 81.9477 -6.47091 -13.9415 53.7433 -170.828 7.30313 93.6967 -7.36093 11.9936 -2.4496 36.1653 -13.7948 0.555617 50.4946 28.5478 16.2991 146.124 39.1211 91.419 -75.2655 -2.9784 11.6654 72.6945 -4.55187 -2.31589 79.0035 0.764871 -6.03403 1.59835 6.12226 -89.7581 14.6355 3.28362 0.0129432 2.96867 3.28101 -0.131753 -19.5974 3.12779 1.0002 0.415301 3.12777 1.00017 98.2485 11.0024 -107.051 0.251272 67.7901 -20.5226 -20.7781 -10.0805 -63.5839 -24.2893 -0.645407 -1.50756 -93.3645 -30.0017 66.9213 -18.5001 -41.1745 -26.361 27.6405 -27.1749 -148.01 18.8519 5.80845 26.3846 8.04199 -4.38818 -22.6821 38.7364 4.0807 7.89313 
91.1894 19.2743 76.6385 -7.15213 -16.7542 51.6593 -171.864 5.31315 91.4154 -7.69315 22.2281 -2.1964 41.992 -8.05602 5.67365 151.978 46.399 -73.4713 135.886 47.1227 93.3702 -87.6604 -2.88511 6.81313 72.5742 -4.83642 -2.4656 75.0429 1.95771 -2.79718 2.12197 6.34458 -89.8234 14.2008 4.29078 -0.237009 2.53684 4.2762 -0.42598 -20.0531 4.16329 1.06583 -0.040438 4.16331 1.06581 102.232 18.9969 -83.675 40.8057 53.3839 -66.3027 -18.4784 -12.5547 -49.4162 -19.9472 -0.969837 0.841053 -80.0611 -11.9702 92.4693 -47.0352 -11.4776 -51.1901 43.043 -30.6996 -131.037 16.7828 5.31837 26.8997 26.18 -9.04569 -19.6108 20.1669 0.839174 9.65799 
90.1748 17.5771 72.5406 -6.25328 -17.2177 50.751 -172.658 1.83936 89.6143 -7.6534 28.4363 -1.78639 54.035 1.59753 9.31131 128.602 35.0245 -69.0979 126.529 52.3859 94.9941 -95.7225 -1.45984 2.88787 72.4917 -5.12643 -2.61138 71.2338 2.29501 -1.232 2.31547 6.47973 -89.7974 13.9316 4.68866 -0.224218 2.26904 4.67424 -0.430798 -20.3312 4.5388 1.19829 -0.318562 4.53882 1.19829 102.778 20.9141 -75.201 41.9716 47.5622 -74.4881 -13.5936 -7.98262 -40.3028 -15.9276 -0.808308 0.947327 -75.8306 0.387314 103.546 -58.7271 4.02152 -65.9069 48.9509 -23.4866 -120.445 18.0101 5.52592 26.1655 36.2965 -11.5133 -16.6106 10.7738 -1.77441 10.7567 
88.4394 16.3333 68.9463 -6.01902 -20.0055 49.6184 -173.56 -1.17534 87.0129 -7.68401 31.1431 -1.5632 59.4833 9.46684 16.0029 113.193 49.5331 -42.5818 117.494 57.5322 100.147 -103.327 4.35283 -1.44367 71.1437 -5.22762 -2.69833 70.3603 3.20855 1.90393 2.55524 6.69541 -89.8158 13.5042 5.15807 -0.294897 1.84339 5.14005 -0.522234 -20.7709 5.00757 1.27296 -0.758248 5.00759 1.27299 102.974 21.2331 -71.9453 55.3871 45.6395 -79.4945 -9.52411 -3.81668 -48.3054 -9.81777 -0.163021 -3.55622 -74.6452 6.15785 110.286 -65.0296 7.0025 -74.4513 48.3924 -14.5083 -115.026 18.7246 5.48532 24.9384 39.1088 -10.3607 -12.9894 7.87316 -2.57454 8.03013 
